<?xml version="1.0" standalone="no"?>
<!DOCTYPE svg PUBLIC "-//W3C//DTD SVG 20010904//EN"
 "http://www.w3.org/TR/2001/REC-SVG-20010904/DTD/svg10.dtd">
<svg version="1.0" xmlns="http://www.w3.org/2000/svg"
 width="225.000000pt" height="225.000000pt" viewBox="0 0 225.000000 225.000000"
 preserveAspectRatio="xMidYMid meet">

<g transform="translate(0.000000,225.000000) scale(0.100000,-0.100000)"
fill="#000000" stroke="none">
<path d="M495 2057 c-18 -15 -28 -36 -32 -65 l-6 -42 -128 0 c-119 0 -130 -2
-149 -22 -16 -18 -20 -35 -20 -95 l0 -73 760 0 760 0 0 69 c0 54 -4 74 -21 95
-20 26 -22 26 -150 26 l-129 0 0 25 c0 34 -25 82 -49 95 -65 34 -151 -14 -151
-84 l0 -36 -260 0 -260 0 0 25 c0 34 -25 82 -49 95 -34 17 -88 12 -116 -13z"/>
<path d="M160 1166 c0 -491 1 -515 19 -537 18 -23 25 -24 174 -27 186 -4 197
0 197 63 0 59 -13 65 -154 65 l-116 0 0 430 0 430 638 -2 637 -3 3 -70 c2 -38
8 -75 14 -82 13 -16 80 -17 96 -1 8 8 12 52 12 130 l0 118 -760 0 -760 0 0
-514z"/>
<path d="M1280 1285 c-164 -45 -314 -165 -387 -312 -22 -43 -42 -88 -45 -101
-6 -21 -10 -22 -117 -22 -72 0 -111 -4 -111 -11 0 -10 270 -322 289 -333 4 -3
74 70 155 162 167 191 166 178 14 181 -43 0 -78 3 -78 6 0 24 54 101 109 156
77 76 148 113 249 131 126 21 269 -23 366 -113 24 -21 47 -39 52 -39 16 0 94
77 94 92 0 20 -94 108 -151 141 -84 50 -156 69 -274 73 -78 3 -126 0 -165 -11z"/>
<path d="M1772 688 c-78 -88 -142 -165 -142 -170 0 -4 45 -8 100 -8 73 0 100
-3 100 -12 0 -28 -60 -116 -112 -164 -103 -97 -239 -144 -364 -124 -105 17
-160 43 -248 117 -22 18 -45 33 -51 33 -15 0 -95 -74 -95 -88 0 -41 150 -150
258 -188 153 -53 307 -40 463 38 135 67 252 204 299 351 l12 37 110 0 c60 0
108 4 106 9 -5 13 -281 331 -288 331 -3 0 -69 -73 -148 -162z"/>
</g>
</svg>
